<svg width="45" height="45" viewBox="0 0 45 45" fill="none" xmlns="http://www.w3.org/2000/svg">
<circle cx="22.5" cy="22.5" r="21.25" stroke="#D40000" stroke-width="2.5"/>
<path d="M8.45996 30V13.6484H13.4912C14.9287 13.6484 16.2127 13.9741 17.3433 14.6255C18.4813 15.2694 19.3685 16.1903 20.0049 17.3882C20.6413 18.5786 20.9595 19.9338 20.9595 21.4536V22.2061C20.9595 23.7259 20.645 25.0773 20.0161 26.2603C19.3947 27.4432 18.515 28.3604 17.377 29.0117C16.2389 29.6631 14.9549 29.9925 13.5249 30H8.45996ZM11.8291 16.3774V27.2935H13.4575C14.7752 27.2935 15.7822 26.863 16.4785 26.002C17.1748 25.141 17.5304 23.9093 17.5454 22.3071V21.4424C17.5454 19.7803 17.201 18.5225 16.5122 17.6689C15.8234 16.8079 14.8164 16.3774 13.4912 16.3774H11.8291ZM36.2554 24.5532C36.1281 26.3127 35.4767 27.6978 34.3013 28.7085C33.1333 29.7192 31.591 30.2246 29.6743 30.2246C27.578 30.2246 25.9271 29.5208 24.7217 28.1133C23.5238 26.6982 22.9248 24.7591 22.9248 22.2959V21.2964C22.9248 19.7241 23.2018 18.339 23.7559 17.1411C24.3099 15.9432 25.0998 15.026 26.1255 14.3896C27.1587 13.7458 28.3566 13.4238 29.7192 13.4238C31.606 13.4238 33.1258 13.9292 34.2788 14.9399C35.4318 15.9507 36.0981 17.3695 36.2778 19.1963H32.9087C32.8263 18.1406 32.5306 17.377 32.0215 16.9053C31.5199 16.4261 30.7524 16.1865 29.7192 16.1865C28.5962 16.1865 27.7539 16.5908 27.1924 17.3994C26.6383 18.2005 26.3538 19.4471 26.3389 21.1392V22.3745C26.3389 24.1414 26.6047 25.4329 27.1362 26.249C27.6753 27.0651 28.5213 27.4731 29.6743 27.4731C30.715 27.4731 31.4899 27.2373 31.999 26.7656C32.5156 26.2865 32.8114 25.549 32.8862 24.5532H36.2554Z" fill="#D40000"/>
</svg>
