<svg width="16" height="16" viewBox="0 0 16 16" fill="none" xmlns="http://www.w3.org/2000/svg">
<circle cx="8" cy="8" r="7.75" stroke="#D40000" stroke-width="0.5"/>
<path d="M3.50781 11V5.3125H5.25781C5.75781 5.3125 6.20443 5.42578 6.59766 5.65234C6.99349 5.8763 7.30208 6.19661 7.52344 6.61328C7.74479 7.02734 7.85547 7.4987 7.85547 8.02734V8.28906C7.85547 8.81771 7.74609 9.28776 7.52734 9.69922C7.3112 10.1107 7.00521 10.4297 6.60938 10.6562C6.21354 10.8828 5.76693 10.9974 5.26953 11H3.50781ZM4.67969 6.26172V10.0586H5.24609C5.70443 10.0586 6.05469 9.90885 6.29688 9.60938C6.53906 9.3099 6.66276 8.88151 6.66797 8.32422V8.02344C6.66797 7.44531 6.54818 7.00781 6.30859 6.71094C6.06901 6.41146 5.71875 6.26172 5.25781 6.26172H4.67969ZM13.1758 9.10547C13.1315 9.71745 12.9049 10.1992 12.4961 10.5508C12.0898 10.9023 11.5534 11.0781 10.8867 11.0781C10.1576 11.0781 9.58333 10.8333 9.16406 10.3438C8.7474 9.85156 8.53906 9.17708 8.53906 8.32031V7.97266C8.53906 7.42578 8.63542 6.94401 8.82812 6.52734C9.02083 6.11068 9.29557 5.79167 9.65234 5.57031C10.0117 5.34635 10.4284 5.23438 10.9023 5.23438C11.5586 5.23438 12.0872 5.41016 12.4883 5.76172C12.8893 6.11328 13.1211 6.60677 13.1836 7.24219H12.0117C11.9831 6.875 11.8802 6.60938 11.7031 6.44531C11.5286 6.27865 11.2617 6.19531 10.9023 6.19531C10.5117 6.19531 10.2188 6.33594 10.0234 6.61719C9.83073 6.89583 9.73177 7.32943 9.72656 7.91797V8.34766C9.72656 8.96224 9.81901 9.41146 10.0039 9.69531C10.1914 9.97917 10.4857 10.1211 10.8867 10.1211C11.2487 10.1211 11.5182 10.0391 11.6953 9.875C11.875 9.70833 11.9779 9.45182 12.0039 9.10547H13.1758Z" fill="#D40000"/>
</svg>
